<svg width="50" height="50" viewBox="0 0 50 50" fill="none" xmlns="http://www.w3.org/2000/svg">
<rect width="50" height="50" rx="25" fill="white"/>
<path d="M35 36.25V33.75C35 32.4239 34.4732 31.1521 33.5355 30.2145C32.5979 29.2768 31.3261 28.75 30 28.75H20C18.6739 28.75 17.4021 29.2768 16.4645 30.2145C15.5268 31.1521 15 32.4239 15 33.75V36.25" stroke="#3563E9" stroke-width="2" stroke-linecap="round" stroke-linejoin="round"/>
<path d="M25 23.75C27.7614 23.75 30 21.5114 30 18.75C30 15.9886 27.7614 13.75 25 13.75C22.2386 13.75 20 15.9886 20 18.75C20 21.5114 22.2386 23.75 25 23.75Z" stroke="#3563E9" stroke-width="2" stroke-linecap="round" stroke-linejoin="round"/>
</svg>
